<svg width="230" height="141" viewBox="0 0 230 141" fill="none" xmlns="http://www.w3.org/2000/svg">
<g filter="url(#filter0_d_16_264)">
<path d="M225.283 123.693V133H89.8096C70.3225 132.999 51.4155 127.255 36.1954 116.713C20.9754 106.171 10.3478 91.4569 6.05907 74.9895C5.96954 74.6405 5.88004 74.3302 5.83528 74.0782C5.79051 73.8843 5.74574 73.6904 5.72336 73.4965H5.701V73.4772C5.72338 73.4578 5.701 73.4578 5.701 73.4578V73.419C5.67301 73.3707 5.65771 73.3178 5.65622 73.2639C5.64776 73.2563 5.64138 73.247 5.63751 73.2369C5.63364 73.2269 5.63239 73.2164 5.63385 73.2057C4.97743 70.31 4.5141 67.3841 4.2462 64.4421C4.08953 62.542 4 60.6032 4 58.6643C4 57.7531 4 56.8418 4.06714 55.95C4.50569 47.8 7.02028 39.8348 11.4306 32.6256C13.6997 37.4805 16.3467 42.1963 19.3535 46.7404C29.8517 62.7289 44.4552 76.4108 62.0345 86.7272C64.2115 88.3615 66.5821 89.7912 69.107 90.9927C69.1293 91.0121 69.1293 91.0121 69.1517 91.0121C70.7377 91.7814 72.3827 92.4552 74.0756 93.0285C79.0758 94.7733 84.4191 95.662 89.8096 95.646H182.155V77.3432C182.16 74.4237 181.762 71.5141 180.968 68.6766V68.6184C179.821 64.5668 177.892 60.7124 175.261 57.218C173.877 55.3623 172.296 53.6228 170.539 52.0219C186.894 62.1289 200.518 75.1946 210.467 90.3141C217.322 100.729 222.317 111.983 225.283 123.693Z" fill="#AC3F37"/>
<path d="M225.284 77.3355V123.693C222.319 111.98 217.323 100.724 210.467 90.3064C200.518 75.1866 186.894 62.1209 170.539 52.0141C166.566 48.3247 161.755 45.3856 156.41 43.3806C151.065 41.3754 145.299 40.3478 139.474 40.3616H68.2348C62.6345 40.3647 57.2648 42.2946 53.3069 45.727C49.3491 49.1593 47.1268 53.813 47.1293 58.6643C47.1219 63.9966 48.4509 69.2666 51.0245 74.1104C53.5981 78.9542 57.3548 83.2563 62.0352 86.7195C44.457 76.4052 29.8534 62.7262 19.3542 46.7404C16.3474 42.1963 13.7004 37.4805 11.4313 32.6256C16.8919 23.6776 25.0675 16.1901 35.0772 10.9696C45.0868 5.74911 56.5511 2.99363 68.2348 3.00001H139.474C158.534 2.99793 177.051 8.49258 192.107 18.6173C207.162 28.7421 217.898 42.9205 222.62 58.9164C222.655 58.9775 222.677 59.043 222.688 59.1103C224.419 65.0691 225.291 71.1909 225.284 77.3355Z" fill="#357B77"/>
<g style="mix-blend-mode:multiply" opacity="0.15">
<g style="mix-blend-mode:multiply" opacity="0.15">
<path d="M225.283 123.693V133C225.283 133 223.426 109.016 183.587 87.6889C183.117 87.4368 182.647 87.1848 182.155 86.9328V77.3354C182.16 74.4159 181.762 71.5063 180.969 68.6688V68.6106C179.821 64.559 177.892 60.7046 175.262 57.2102C173.877 55.3545 172.296 53.615 170.539 52.0141C186.894 62.1211 200.518 75.1868 210.467 90.3063C217.323 100.724 222.318 111.98 225.283 123.693Z" fill="black"/>
</g>
</g>
<g style="mix-blend-mode:multiply" opacity="0.15">
<g style="mix-blend-mode:multiply" opacity="0.15">
<path d="M74.0756 93.0208C74.0756 93.0208 42.0257 92.5554 4.2462 64.4421C4.08953 62.542 4 60.6032 4 58.6643C4 57.7531 4 56.8418 4.06714 55.95C4.50569 47.8 7.02028 39.8348 11.4306 32.6256C13.6997 37.4805 16.3467 42.1963 19.3535 46.7404C29.8517 62.7289 44.4552 76.4108 62.0345 86.7272C64.2115 88.3615 66.5821 89.7912 69.107 90.9927C69.1293 91.0121 69.1293 91.0121 69.1517 91.0121C70.7379 91.7787 72.3831 92.45 74.0756 93.0208Z" fill="black"/>
</g>
</g>
<g style="mix-blend-mode:multiply" opacity="0.3">
<g style="mix-blend-mode:multiply" opacity="0.3">
<path d="M5.7015 73.4578C5.67914 73.4147 5.66405 73.369 5.65673 73.322C5.67911 73.3414 5.67912 73.3802 5.7015 73.419V73.4578Z" fill="black"/>
</g>
</g>
<g style="mix-blend-mode:multiply" opacity="0.3">
<g style="mix-blend-mode:multiply" opacity="0.3">
<path d="M214.652 133H89.8092C70.3221 132.999 51.4151 127.255 36.1949 116.713C20.9749 106.171 10.3473 91.4571 6.05853 74.9896C5.969 74.6407 5.8795 74.3304 5.83474 74.0784C5.77695 73.887 5.73212 73.6928 5.70045 73.4967V73.4773L5.72282 73.4967C5.85711 73.8651 6.08093 74.5049 6.39426 75.4356C7.0385 77.5794 7.82312 79.6898 8.74431 81.7562C9.37098 83.094 9.88573 84.6063 10.7586 86.1574C11.6315 87.7085 12.5491 89.3953 13.5562 91.179C14.7201 92.8852 15.951 94.6884 17.2715 96.6078C18.7711 98.3916 20.1811 100.389 21.9492 102.269C23.7405 104.262 25.6609 106.165 27.7013 107.969C28.7532 108.9 29.8275 109.85 30.9018 110.82C32.088 111.692 33.2742 112.603 34.4828 113.515C35.0871 113.961 35.669 114.445 36.2957 114.872C36.9671 115.279 37.6162 115.705 38.2652 116.113C39.6081 116.946 40.9062 117.838 42.3162 118.633C45.1756 120.251 48.1342 121.733 51.1792 123.073C54.3179 124.455 57.5462 125.678 60.8479 126.738C64.265 127.736 67.7386 128.584 71.2551 129.277C74.7994 129.956 78.3865 130.454 81.9981 130.77L87.6829 130.984C88.5782 131.022 89.6749 131.081 90.4134 131.061H93.2559C100.843 131.081 108.43 131.1 115.906 131.139C123.381 131.177 130.722 131.236 137.839 131.294C152.051 131.43 165.346 131.643 176.715 131.895C188.107 132.108 197.575 132.457 204.222 132.632C210.869 132.872 214.652 133 214.652 133Z" fill="black"/>
</g>
</g>
<g style="mix-blend-mode:overlay" opacity="0.6">
<g style="mix-blend-mode:overlay" opacity="0.6">
<path d="M184.012 97.1313L182.155 97.1895C178.462 97.3252 174.791 97.3446 171.098 97.4221C167.406 97.4997 163.735 97.5191 160.064 97.5385C156.394 97.5578 152.701 97.5966 149.008 97.5578C145.315 97.5191 141.645 97.5191 137.974 97.4609C130.611 97.3446 123.247 97.1701 115.884 96.8792C108.521 96.5884 101.157 96.2394 93.7937 95.6384H182.155V77.3357C182.16 74.4161 181.762 71.5065 180.969 68.669V68.6108C181.818 70.7761 182.41 73.0111 182.737 75.2805C183.05 77.5877 183.117 79.8174 183.296 82.0858C183.408 83.9471 183.52 85.8278 183.587 87.6891C183.744 90.3453 183.856 92.9822 183.945 95.6384L184.012 97.1313Z" fill="white"/>
</g>
</g>
<g style="mix-blend-mode:screen" opacity="0.4">
<g style="mix-blend-mode:screen" opacity="0.4">
<path d="M222.62 58.9164C222.329 58.2766 221.479 56.299 220.248 53.2937C219.263 51.4906 218.278 49.2609 216.801 46.8568C216.04 45.6547 215.234 44.375 214.384 43.0372C213.533 41.6994 212.437 40.4004 211.429 38.985C210.347 37.522 209.174 36.1111 207.916 34.7583C207.289 34.041 206.64 33.3236 205.991 32.5868C205.275 31.8888 204.558 31.1909 203.842 30.4735C203.126 29.7561 202.365 29.0387 201.626 28.302C200.798 27.6234 199.97 26.9448 199.142 26.2468C198.314 25.5488 197.486 24.8508 196.635 24.1528C195.74 23.4936 194.823 22.8344 193.905 22.1752C192.987 21.516 192.07 20.818 191.107 20.1976C190.145 19.5772 189.115 18.9761 188.108 18.3556C186.139 17.076 183.99 16.029 181.841 14.9045C177.469 12.6943 172.877 10.8257 168.122 9.32061C165.727 8.56446 163.265 7.98284 160.87 7.30424C158.408 6.81953 155.946 6.31541 153.484 5.88887C151.022 5.63681 148.65 5.26845 146.166 5.05518C143.704 4.93884 141.085 4.76436 138.825 4.7062C129.022 4.57048 119.89 4.35715 112.057 4.1051C104.223 3.89183 97.7104 3.54288 93.1446 3.36839C88.5789 3.19389 85.9603 3 85.9603 3H139.474C158.533 2.99792 177.051 8.49256 192.106 18.6173C207.161 28.7421 217.897 42.9205 222.62 58.9164Z" fill="#357B77"/>
</g>
</g>
<g style="mix-blend-mode:multiply" opacity="0.3">
<g style="mix-blend-mode:multiply" opacity="0.3">
<path d="M226 128.366L225.284 125.845L224.702 123.81C222.736 116.722 220.008 109.809 216.555 103.161C214.877 99.8261 212.997 96.5882 210.982 93.4085C209.975 91.7993 208.901 90.2676 207.804 88.6971C206.707 87.1266 205.588 85.6531 204.38 84.1602C199.674 78.1635 194.34 72.556 188.444 67.4086C185.535 64.8299 182.424 62.4063 179.268 60.0603C177.948 59.0909 176.627 58.1409 175.262 57.2102C173.878 55.3545 172.297 53.615 170.539 52.0141C166.566 48.3249 161.755 45.3856 156.41 43.3806C151.065 41.3756 145.299 40.3478 139.474 40.3616H68.2348C62.6345 40.3647 57.2648 42.2946 53.3069 45.727C49.3491 49.1593 47.1268 53.813 47.1293 58.6643C47.1219 63.9966 48.4509 69.2667 51.0245 74.1106C53.5981 78.9544 57.3548 83.2563 62.0352 86.7195C64.2122 88.3537 66.5828 89.7835 69.1076 90.985C66.3178 90.2375 63.654 89.1748 61.1847 87.8246C55.5551 84.4113 50.2148 80.6532 45.2045 76.5793C42.7202 74.5435 40.2806 72.4302 37.9754 70.2393C35.6701 68.0484 33.4767 65.7605 31.3729 63.4339C27.1843 58.7568 23.399 53.819 20.048 48.6599C16.6851 43.5235 13.8037 38.1616 11.4313 32.6256C14.1685 38.0055 17.3473 43.2084 20.9433 48.1946C24.5014 53.1741 28.4813 57.9179 32.8501 62.3869C35.021 64.636 37.3263 66.7881 39.654 68.8821C41.9816 70.976 44.4212 72.9924 46.9279 74.9507C48.5169 76.1915 50.1731 77.3742 51.8293 78.5569C50.2727 76.4095 48.9753 74.129 47.9574 71.7516C46.583 68.6397 45.7166 65.3768 45.3835 62.0573C44.88 58.6665 45.2625 55.221 46.5026 51.9753C47.8412 48.6733 50.1552 45.7326 53.2143 43.4465C56.2734 41.1606 59.9707 39.609 63.9376 38.9463C64.9262 38.7745 65.9291 38.6707 66.9367 38.636C67.4291 38.6166 67.7424 38.5779 68.4138 38.5585H69.7791L75.2849 38.5391L86.2964 38.5003L108.297 38.4228L130.298 38.5003C133.991 38.5391 137.549 38.5003 141.377 38.5779C145.223 38.7287 149.031 39.3154 152.702 40.3228C160.005 42.315 166.595 45.9003 171.837 50.7345C175.262 52.8866 178.552 55.155 181.752 57.5592C184.985 59.9915 188.071 62.5672 190.996 65.2758C196.869 70.6749 202.158 76.5289 206.797 82.7642C207.961 84.2959 209.08 85.9246 210.154 87.495C211.228 89.0655 212.28 90.7135 213.243 92.3615C215.212 95.6382 217.025 98.973 218.637 102.405C221.183 107.951 223.247 113.654 224.814 119.467C224.948 113.863 225.105 108.279 225.284 102.676C225.53 109.675 225.731 116.694 225.888 123.693L226 128.366Z" fill="black"/>
</g>
</g>
<path d="M106.167 80.8145C106.668 81.931 107.101 82.9792 107.466 83.959C107.01 84.4147 106.406 84.8363 105.654 85.2236C104.902 85.5882 104.025 85.9186 103.022 86.2148C102.749 86.2832 102.419 86.3743 102.031 86.4883C101.667 86.6022 101.245 86.7161 100.767 86.8301C100.106 86.8757 99.3083 86.944 98.374 87.0352C97.4626 87.1263 96.3802 87.2516 95.127 87.4111C93.3496 88.8011 91.766 89.8949 90.376 90.6924C89.0088 91.4899 87.8581 92.0026 86.9238 92.2305L86.4111 92.6748C85.6364 93.0166 84.6908 93.29 83.5742 93.4951C82.4805 93.723 81.1816 93.9167 79.6777 94.0762C79.4043 94.0078 79.1195 93.8369 78.8232 93.5635C78.5498 93.3128 78.2308 92.9482 77.8662 92.4697C78.0941 92.2191 78.3789 91.8887 78.7207 91.4785C79.0625 91.0911 79.4385 90.624 79.8486 90.0771C80.1904 89.5758 80.5892 89.1771 81.0449 88.8809C81.5234 88.5618 82.1273 88.334 82.8564 88.1973C83.6084 88.0378 84.4401 87.8099 85.3516 87.5137C85.5794 87.3314 85.8529 87.1491 86.1719 86.9668C86.5137 86.7617 86.8896 86.5225 87.2998 86.249C87.8239 85.9984 88.3708 85.6452 88.9404 85.1895C89.5101 84.7337 90.1367 84.1755 90.8203 83.5146C91.7318 82.626 92.4609 81.9196 93.0078 81.3955C93.5547 80.8486 93.8851 80.5068 93.999 80.3701C94.1813 80.0511 94.375 79.7663 94.5801 79.5156C94.7852 79.2422 95.0358 78.9915 95.332 78.7637C95.651 78.2168 96.0498 77.5332 96.5283 76.7129C97.0068 75.8698 97.5765 74.9014 98.2373 73.8076C98.3512 73.6937 98.488 73.5342 98.6475 73.3291C98.8298 73.1012 99.0348 72.862 99.2627 72.6113C99.7184 72.0872 100.049 71.2897 100.254 70.2188C100.459 69.1478 100.562 67.849 100.562 66.3223C100.562 65.2741 100.288 64.1803 99.7412 63.041C99.2171 61.9017 98.3968 60.694 97.2803 59.418C96.346 58.3698 95.3548 57.4355 94.3066 56.6152C93.2585 55.7721 92.1989 55.0885 91.1279 54.5645C90.3076 54.1543 89.5329 53.7555 88.8037 53.3682C88.0973 52.958 87.4479 52.5934 86.8555 52.2744C86.5365 53.4137 86.1263 54.986 85.625 56.9912C85.1465 58.9964 84.5996 61.4346 83.9844 64.3057C83.3008 67.5413 82.7881 70.1504 82.4463 72.1328C82.1045 74.1152 81.9336 75.4482 81.9336 76.1318C81.7969 76.7015 81.6829 77.2712 81.5918 77.8408L80.2246 84.5742C79.4271 86.1237 78.7435 87.2744 78.1738 88.0264C77.6042 88.7783 77.1598 89.1543 76.8408 89.1543C76.6813 89.1543 76.5332 89.029 76.3965 88.7783C76.2598 88.5049 76.123 88.0833 75.9863 87.5137L76.3965 85.5654C76.3281 85.4287 76.2598 85.235 76.1914 84.9844C76.3281 83.5033 76.4535 82.0107 76.5674 80.5068C76.6813 78.9801 76.8066 77.4648 76.9434 75.9609C77.0573 74.2747 77.2282 72.6911 77.4561 71.21C77.6839 69.7288 77.9346 68.3617 78.208 67.1084L77.7979 65.3652C77.9574 64.9323 78.0941 64.3968 78.208 63.7588C78.3447 63.1208 78.4587 62.3916 78.5498 61.5713C78.641 60.5231 78.7207 59.68 78.7891 59.042C78.8574 58.3812 78.9372 57.9255 79.0283 57.6748C79.1195 57.3786 79.2106 57.0026 79.3018 56.5469C79.4157 56.0911 79.541 55.5443 79.6777 54.9062C79.7461 54.6556 80.1449 54.1771 80.874 53.4707C81.6032 52.7415 82.0703 52.1947 82.2754 51.8301C82.7539 51.7617 83.1071 51.6706 83.335 51.5566C83.5628 51.4199 83.6768 51.249 83.6768 51.0439C83.6768 50.8844 83.54 50.7477 83.2666 50.6338C83.016 50.5199 82.6286 50.4287 82.1045 50.3604C81.8538 50.3604 81.5576 50.3376 81.2158 50.292C80.8968 50.2236 80.5664 50.1211 80.2246 49.9844L77.4219 48.6172C76.8294 48.3438 76.3737 48.0703 76.0547 47.7969C75.7585 47.5234 75.6104 47.2386 75.6104 46.9424C75.7471 46.4867 75.861 46.0309 75.9521 45.5752C75.7926 45.1195 75.6559 44.7435 75.542 44.4473C75.4508 44.151 75.4053 43.9232 75.4053 43.7637C75.4053 43.5586 75.4508 43.3991 75.542 43.2852C75.6559 43.1712 75.804 43.1143 75.9863 43.1143C76.6243 43.2282 77.1826 43.3307 77.6611 43.4219C77.889 43.3535 78.1169 43.2852 78.3447 43.2168C78.5726 43.1257 78.8005 43.0345 79.0283 42.9434C79.5752 42.9434 80.0651 42.9889 80.498 43.0801C80.931 43.1484 81.2614 43.2282 81.4893 43.3193C81.8083 43.4788 82.1387 43.6497 82.4805 43.832C82.8223 44.0143 83.1527 44.1738 83.4717 44.3105C83.7451 44.265 84.1097 44.208 84.5654 44.1396C84.7021 44.1396 84.8275 44.1624 84.9414 44.208C85.2148 44.3903 85.5452 44.5612 85.9326 44.7207C86.32 44.8574 86.7643 44.9827 87.2656 45.0967C87.8125 45.1878 88.2796 45.2904 88.667 45.4043C89.0544 45.4954 89.362 45.598 89.5898 45.7119C92.0052 46.9652 94.113 48.1501 95.9131 49.2666C97.736 50.3604 99.2399 51.4313 100.425 52.4795C102.293 54.0973 103.672 55.8291 104.561 57.6748C105.449 59.5205 105.894 61.446 105.894 63.4512C105.894 66.6413 104.948 70.0251 103.057 73.6025C101.165 77.18 98.3512 80.9398 94.6143 84.8818C94.9333 84.7451 95.3548 84.597 95.8789 84.4375C96.403 84.278 97.0068 84.0843 97.6904 83.8564C99.126 83.5374 100.607 83.1956 102.134 82.8311C103.091 82.5576 103.9 82.2614 104.561 81.9424C105.221 81.6234 105.757 81.2474 106.167 80.8145ZM105.962 80.8145L106.167 80.5752L106.27 80.2334C106.885 79.3903 107.967 78.2965 109.517 76.9521C111.066 75.585 112.137 74.4798 112.729 73.6367C112.957 73.2721 113.219 73.0101 113.516 72.8506C113.812 72.6911 114.108 72.6113 114.404 72.6113C115.202 72.6113 115.874 72.8164 116.421 73.2266C116.968 73.6139 117.332 74.2064 117.515 75.0039C117.674 75.7103 117.822 76.4281 117.959 77.1572C118.096 77.8636 118.21 78.5814 118.301 79.3105C118.46 79.7663 118.654 80.4613 118.882 81.3955C119.11 82.307 119.281 82.8311 119.395 82.9678C119.508 83.1956 119.679 83.3665 119.907 83.4805C120.135 83.5716 120.42 83.6172 120.762 83.6172C121.172 83.6172 121.593 83.5488 122.026 83.4121C122.459 83.2526 122.904 82.9906 123.359 82.626C123.701 82.3298 124.054 82.0335 124.419 81.7373C124.806 81.4183 125.182 81.1107 125.547 80.8145L126.914 83.959C126.549 84.3236 126.06 84.7451 125.444 85.2236C124.852 85.6794 124.134 86.2148 123.291 86.8301C122.357 87.5137 121.559 88.0264 120.898 88.3682C120.238 88.6872 119.736 88.8467 119.395 88.8467C117.321 88.8467 115.977 88.6074 115.361 88.1289C114.746 87.6504 114.062 86.3174 113.311 84.1299C113.219 83.9476 113.083 83.7311 112.9 83.4805C112.718 83.2298 112.513 82.9336 112.285 82.5918C112.012 82.0677 111.772 81.6803 111.567 81.4297C111.362 81.1562 111.191 81.0195 111.055 81.0195C110.69 81.0195 110.2 81.2702 109.585 81.7715C108.97 82.25 108.218 82.9792 107.329 83.959C107.215 83.6628 107.078 83.3096 106.919 82.8994C106.737 82.4893 106.554 82.0107 106.372 81.4639C106.326 81.3271 106.27 81.2018 106.201 81.0879C106.133 80.974 106.053 80.8828 105.962 80.8145ZM120.249 53.8467C120.819 53.8467 121.229 53.9606 121.479 54.1885C121.753 54.4163 121.89 54.7467 121.89 55.1797C121.753 55.8177 121.639 56.3532 121.548 56.7861C121.32 57.6064 121.115 58.2786 120.933 58.8027C120.773 59.3268 120.648 59.7028 120.557 59.9307C120.352 60.432 120.067 60.8763 119.702 61.2637C119.36 61.6283 118.939 61.9587 118.438 62.2549C117.913 62.6195 117.469 62.8815 117.104 63.041C116.763 63.1777 116.523 63.2347 116.387 63.2119C115.999 63.1663 115.623 63.1322 115.259 63.1094C114.917 63.0638 114.575 63.041 114.233 63.041C113.937 62.8815 113.698 62.5739 113.516 62.1182C113.356 61.6624 113.276 61.0472 113.276 60.2725C113.276 59.5889 113.687 58.7344 114.507 57.709C115.35 56.6608 116.09 56.1025 116.729 56.0342C117.116 55.5557 117.572 55.0088 118.096 54.3936C118.324 54.234 118.62 54.1087 118.984 54.0176C119.349 53.9036 119.771 53.8467 120.249 53.8467ZM125.513 80.8145C125.604 80.6549 125.729 80.484 125.889 80.3018C126.025 80.0967 126.196 79.8574 126.401 79.584C126.629 79.4017 126.925 79.1396 127.29 78.7979C127.655 78.4561 128.065 78.0573 128.521 77.6016C128.931 77.1458 129.432 76.5876 130.024 75.9268C130.617 75.2432 131.335 74.4229 132.178 73.4658C132.542 73.0785 132.998 72.5885 133.545 71.9961C134.092 71.3809 134.741 70.6517 135.493 69.8086C136.131 69.0566 136.815 68.4984 137.544 68.1338C138.273 67.7692 139.048 67.5869 139.868 67.5869C140.688 67.5869 141.292 67.849 141.68 68.373C142.067 68.8743 142.261 69.6149 142.261 70.5947C142.261 71.1188 142.067 72.1214 141.68 73.6025C141.292 75.0837 140.688 77.0433 139.868 79.4814C139.663 79.9372 139.469 80.3701 139.287 80.7803C139.15 81.0765 139.059 81.3385 139.014 81.5664C138.968 81.7943 138.945 81.9652 138.945 82.0791C138.945 82.2158 139.025 82.3867 139.185 82.5918C139.299 82.5234 139.401 82.4323 139.492 82.3184C139.606 82.2044 139.731 82.0677 139.868 81.9082C140.05 81.5664 140.324 81.2132 140.688 80.8486C141.076 80.4613 141.532 80.0397 142.056 79.584C142.261 79.1966 142.523 78.8206 142.842 78.4561C143.184 78.0687 143.56 77.7155 143.97 77.3965C144.061 77.3053 144.175 77.1572 144.312 76.9521C144.471 76.7471 144.653 76.5306 144.858 76.3027C145.155 76.0065 145.508 75.6989 145.918 75.3799C146.328 75.0609 146.807 74.7305 147.354 74.3887C147.969 74.0697 148.516 73.819 148.994 73.6367C149.495 73.4544 149.928 73.3633 150.293 73.3633C150.999 73.3633 151.626 73.5342 152.173 73.876C152.72 74.2178 153.187 74.7533 153.574 75.4824C154.03 76.8952 154.463 78.2054 154.873 79.4131C155.124 80.1195 155.397 80.6436 155.693 80.9854C156.012 81.3271 156.366 81.498 156.753 81.498C157.049 81.498 157.311 81.4411 157.539 81.3271C157.79 81.2132 158.018 81.0423 158.223 80.8145L159.59 83.959C159.202 84.278 158.804 84.6084 158.394 84.9502C157.983 85.292 157.585 85.6224 157.197 85.9414C156.673 86.4199 156.183 86.7617 155.728 86.9668C155.272 87.1491 154.816 87.2402 154.36 87.2402C153.836 87.2402 153.335 87.1263 152.856 86.8984C152.378 86.6706 151.968 86.3288 151.626 85.873C151.444 85.6908 151.216 85.3604 150.942 84.8818C150.669 84.3805 150.35 83.7653 149.985 83.0361C149.689 82.7399 149.347 82.3525 148.96 81.874C148.595 81.3727 148.162 80.7917 147.661 80.1309L147.354 80.0283C146.921 80.165 146.488 80.3701 146.055 80.6436C145.645 80.917 145.2 81.2702 144.722 81.7031C143.696 82.6146 142.956 83.1842 142.5 83.4121C142.044 83.64 141.737 83.902 141.577 84.1982C141.258 84.7451 140.711 85.4515 139.937 86.3174C139.162 87.1833 138.193 88.2087 137.031 89.3936C136.735 89.6898 136.439 89.986 136.143 90.2822C135.846 90.5557 135.55 90.8291 135.254 91.1025C134.958 91.3532 134.616 91.5241 134.229 91.6152C133.864 91.7292 133.454 91.7861 132.998 91.7861C132.087 91.7861 131.585 91.4785 131.494 90.8633C131.426 90.2253 131.357 89.5872 131.289 88.9492C131.631 87.9922 132.018 86.7959 132.451 85.3604C132.884 83.9248 133.385 82.25 133.955 80.3359C133.955 80.222 133.989 80.0739 134.058 79.8916C134.149 79.6865 134.251 79.4245 134.365 79.1055C134.479 78.8092 134.559 78.5586 134.604 78.3535C134.65 78.1257 134.673 77.932 134.673 77.7725C134.673 77.613 134.616 77.4876 134.502 77.3965C134.388 77.3053 134.206 77.2598 133.955 77.2598C133.727 77.2598 133.42 77.3965 133.032 77.6699C132.668 77.9434 132.223 78.3763 131.699 78.9688C131.061 79.6523 130.549 80.1878 130.161 80.5752C129.774 80.9626 129.512 81.1904 129.375 81.2588C129.147 81.4183 128.874 81.6462 128.555 81.9424C128.258 82.2386 127.917 82.569 127.529 82.9336C127.484 83.0247 127.415 83.1615 127.324 83.3438C127.233 83.526 127.085 83.7311 126.88 83.959C126.789 83.6172 126.629 83.1956 126.401 82.6943C126.174 82.193 125.877 81.5664 125.513 80.8145ZM158.188 80.8145C158.462 80.3359 158.815 79.8574 159.248 79.3789C159.681 78.8776 160.228 78.3649 160.889 77.8408C160.957 77.3851 161.025 76.9408 161.094 76.5078C161.162 76.0521 161.208 75.5964 161.23 75.1406C161.299 74.8216 161.401 74.4456 161.538 74.0127C161.698 73.5798 161.868 73.1126 162.051 72.6113C162.256 72.11 162.529 71.4834 162.871 70.7314C163.236 69.9795 163.703 69.1364 164.272 68.2021C164.751 67.6781 165.252 67.1084 165.776 66.4932C166.3 65.8551 166.825 65.2171 167.349 64.5791C167.599 64.374 167.873 64.1803 168.169 63.998C168.465 63.8158 168.761 63.6107 169.058 63.3828C169.331 63.2917 169.639 63.2119 169.98 63.1436C170.322 63.0752 170.698 63.041 171.108 63.041C171.678 63.041 172.134 63.098 172.476 63.2119C172.84 63.3258 173.136 63.5195 173.364 63.793C173.524 63.9753 173.672 64.2487 173.809 64.6133C173.968 64.9779 174.116 65.4222 174.253 65.9463C174.321 66.402 174.401 66.9033 174.492 67.4502C174.492 67.3135 174.447 67.3704 174.355 67.6211C174.287 67.8717 174.173 68.2705 174.014 68.8174L173.706 69.9111C173.387 71.0049 172.669 72.2695 171.553 73.7051C170.436 75.1406 168.932 76.7812 167.041 78.627C166.882 78.7865 166.745 78.9915 166.631 79.2422C166.517 79.4701 166.46 79.7207 166.46 79.9941C166.46 80.4727 166.54 80.8942 166.699 81.2588C166.882 81.6234 167.132 81.8968 167.451 82.0791C167.633 82.2158 167.918 82.3525 168.306 82.4893C168.716 82.626 169.194 82.7513 169.741 82.8652C170.63 82.7969 171.439 82.6488 172.168 82.4209C172.897 82.193 173.547 81.9196 174.116 81.6006C174.23 81.5322 174.412 81.4411 174.663 81.3271C174.914 81.1904 175.164 81.0195 175.415 80.8145C175.711 81.4753 175.973 82.0677 176.201 82.5918C176.429 83.1159 176.611 83.5716 176.748 83.959C175.449 85.235 174.264 86.2035 173.193 86.8643C172.145 87.5023 171.177 87.8213 170.288 87.8213C169.924 88.0492 169.502 88.2201 169.023 88.334C168.568 88.4251 168.021 88.4707 167.383 88.4707C166.54 88.4707 165.788 88.3454 165.127 88.0947C164.489 87.8441 163.953 87.4795 163.521 87.001C163.293 86.7731 163.065 86.4427 162.837 86.0098C162.609 85.554 162.37 85.0186 162.119 84.4033C161.914 83.902 161.72 83.5374 161.538 83.3096C161.356 83.0589 161.151 82.9336 160.923 82.9336C160.741 82.9336 160.535 83.0247 160.308 83.207C160.08 83.3665 159.829 83.6172 159.556 83.959C159.465 83.6172 159.305 83.1956 159.077 82.6943C158.849 82.193 158.553 81.5664 158.188 80.8145ZM169.126 69.7061C168.625 69.7061 167.952 70.3669 167.109 71.6885C166.266 72.9873 165.845 73.9443 165.845 74.5596C165.845 74.6963 165.868 74.7988 165.913 74.8672C165.981 74.9128 166.107 74.9355 166.289 74.9355C166.54 74.9355 166.745 74.8102 166.904 74.5596C167.064 74.2861 167.212 74.0355 167.349 73.8076C167.599 73.5798 167.839 73.3405 168.066 73.0898C168.317 72.8164 168.556 72.5544 168.784 72.3037C169.058 71.9847 169.263 71.6657 169.399 71.3467C169.536 71.0277 169.604 70.7087 169.604 70.3896C169.604 70.1846 169.559 70.0251 169.468 69.9111C169.399 69.7744 169.285 69.7061 169.126 69.7061Z" fill="#E9E7DB"/>
<g filter="url(#filter1_d_16_264)">
<path d="M62.2441 32.9707C61.7559 33.3451 61.1455 33.7764 60.4131 34.2646C59.6969 34.7529 58.8506 35.29 57.874 35.876C56.9951 36.3805 56.2139 36.82 55.5303 37.1943C54.863 37.5524 54.3014 37.821 53.8457 38C53.1784 38.3092 52.4704 38.529 51.7217 38.6592C50.973 38.8057 50.208 38.8789 49.4268 38.8789C49.1826 38.8789 48.9059 38.8382 48.5967 38.7568C48.3037 38.6917 47.9863 38.6104 47.6445 38.5127C47.2214 38.3988 46.8633 38.3011 46.5703 38.2197C46.2773 38.1383 46.0332 38.0895 45.8379 38.0732L45.5449 37.7803L44.8369 37.6826C44.5277 37.6663 44.1533 37.5117 43.7139 37.2188C43.2907 36.9258 42.8268 36.5189 42.3223 35.998C41.834 35.5098 41.4352 35.0459 41.126 34.6064C40.833 34.167 40.6214 33.7682 40.4912 33.4102L39.832 31.3105C39.6042 30.5944 39.4333 30.0166 39.3193 29.5771C39.2054 29.1377 39.1566 28.8529 39.1729 28.7227L39.4414 27.624C39.3112 27.2497 39.2054 26.9404 39.124 26.6963C39.0589 26.4521 39.0264 26.265 39.0264 26.1348C39.0264 26.0046 39.0671 25.6058 39.1484 24.9385C39.2298 24.2712 39.3438 23.3434 39.4902 22.1553C39.6042 21.9274 39.7262 21.6507 39.8564 21.3252C39.9867 20.9997 40.1087 20.6335 40.2227 20.2266L40.1494 19.6895C40.1494 19.5592 40.1738 19.4128 40.2227 19.25C40.2878 19.071 40.3691 18.8757 40.4668 18.6641C40.8411 17.8665 41.2155 17.0609 41.5898 16.2471C41.9642 15.4333 42.3385 14.6439 42.7129 13.8789C43.0384 13.293 43.4535 12.6908 43.958 12.0723C44.4788 11.4538 45.0729 10.8109 45.7402 10.1436C45.8867 9.98079 46.0658 9.76921 46.2773 9.50879C46.4889 9.24837 46.7412 8.96354 47.0342 8.6543C47.3109 8.49154 47.6445 8.2474 48.0352 7.92188C48.4421 7.58008 48.9222 7.14876 49.4756 6.62793C49.6383 6.56283 49.8337 6.47331 50.0615 6.35938C50.2894 6.24544 50.5661 6.1071 50.8916 5.94434C50.973 5.89551 51.0706 5.81413 51.1846 5.7002C51.3148 5.58626 51.4613 5.46419 51.624 5.33398C51.8031 5.17122 52.4541 4.92708 53.5771 4.60156C54.7002 4.27604 55.4326 4.11328 55.7744 4.11328C56.5231 4.11328 57.1579 4.17025 57.6787 4.28418C58.1995 4.38184 58.6146 4.5446 58.9238 4.77246L59.7051 4.91895C60.3561 5.06543 60.8363 5.56185 61.1455 6.4082C61.4548 7.25456 61.6094 8.47526 61.6094 10.0703C61.6094 10.819 61.6012 11.4212 61.585 11.877C61.5687 12.3164 61.5443 12.6175 61.5117 12.7803C61.4141 13.2686 61.3001 13.887 61.1699 14.6357C61.056 15.3682 60.9014 16.2227 60.7061 17.1992C60.6898 17.4596 60.5758 17.891 60.3643 18.4932C60.1689 19.0791 59.9085 19.8115 59.583 20.6904C59.2412 21.6507 58.9482 22.3831 58.7041 22.8877C58.46 23.376 58.2565 23.6445 58.0938 23.6934C57.4427 23.8561 56.7428 24.0352 55.9941 24.2305C55.6361 24.2305 55.3838 24.2061 55.2373 24.1572C55.0908 24.0921 55.0176 23.9945 55.0176 23.8643C55.0176 23.7503 55.042 23.5713 55.0908 23.3271C55.1559 23.083 55.1885 22.9121 55.1885 22.8145C55.1396 22.196 55.0908 21.5693 55.042 20.9346C55.042 20.7067 55.1071 20.2591 55.2373 19.5918C55.3675 18.9245 55.5628 18.07 55.8232 17.0283C56.0999 15.889 56.3441 14.9938 56.5557 14.3428C56.7673 13.6755 56.9382 13.2604 57.0684 13.0977C57.5404 12.6582 57.8822 12.2432 58.0938 11.8525C58.3216 11.4456 58.4355 11.0794 58.4355 10.7539C58.4355 10.2982 58.3216 9.89941 58.0938 9.55762C57.8822 9.21582 57.5566 8.9554 57.1172 8.77637C56.694 8.67871 56.2627 8.58919 55.8232 8.50781C55.4001 8.41016 54.9769 8.29622 54.5537 8.16602C54.2119 8.29622 53.9027 8.39388 53.626 8.45898C53.3656 8.52409 53.1377 8.58105 52.9424 8.62988C51.8519 8.80892 50.8021 9.31348 49.793 10.1436C48.8001 10.9736 47.848 12.1211 46.9365 13.5859C46.1878 14.8555 45.5856 16.1331 45.1299 17.4189C44.6742 18.6885 44.3649 19.9661 44.2021 21.252C44.137 21.6426 44.0557 22.1309 43.958 22.7168C43.8604 23.2865 43.722 23.9619 43.543 24.7432C43.6895 25.2314 43.8197 25.679 43.9336 26.0859L43.6895 28.3076C43.6895 28.389 43.7627 28.5599 43.9092 28.8203C44.0557 29.0645 44.2835 29.4307 44.5928 29.9189C44.7718 30.1956 44.9346 30.5212 45.0811 30.8955C45.2275 31.2699 45.3415 31.693 45.4229 32.165C45.4554 32.279 45.5124 32.401 45.5938 32.5312C45.6914 32.6615 45.7972 32.7673 45.9111 32.8486C46.1553 33.0602 46.3913 33.2474 46.6191 33.4102C47.319 34.1589 48.0596 34.7285 48.8408 35.1191C49.6383 35.4935 50.4847 35.6807 51.3799 35.6807C51.4613 35.6807 51.7624 35.64 52.2832 35.5586C52.8203 35.4772 53.5527 35.347 54.4805 35.168C54.6432 35.054 54.8548 34.9401 55.1152 34.8262C55.3919 34.7122 55.7174 34.5902 56.0918 34.46C56.4173 34.1344 56.7428 33.9066 57.0684 33.7764C57.3939 33.6299 57.695 33.5566 57.9717 33.5566C58.0531 33.4427 58.1507 33.3044 58.2646 33.1416C58.3949 32.9788 58.5576 32.7998 58.7529 32.6045C59.2412 32.4092 59.6888 32.1569 60.0957 31.8477C60.5026 31.5221 60.8932 31.1478 61.2676 30.7246C61.9186 32.1406 62.2441 32.8893 62.2441 32.9707ZM61.2676 30.7246C61.3815 30.6107 61.5036 30.4642 61.6338 30.2852C61.7477 30.0898 61.8861 29.8783 62.0488 29.6504L63.9287 28.3564C64.1566 28.0798 64.5065 27.7298 64.9785 27.3066C65.4505 26.8672 66.0365 26.3382 66.7363 25.7197C66.8177 25.5407 66.9479 25.3372 67.127 25.1094C67.3223 24.8652 67.5501 24.6292 67.8105 24.4014C68.0384 24.1898 68.2663 23.9945 68.4941 23.8154C68.722 23.6201 68.9336 23.4329 69.1289 23.2539C69.373 23.0098 69.6009 22.7656 69.8125 22.5215C70.0404 22.2773 70.2682 22.0413 70.4961 21.8135C70.7565 21.5856 71.0251 21.4066 71.3018 21.2764C71.5785 21.1462 71.8796 21.0811 72.2051 21.0811C72.5632 21.0811 72.8317 21.1299 73.0107 21.2275C73.2061 21.3089 73.3118 21.431 73.3281 21.5938C73.1654 21.9681 72.9945 22.3424 72.8154 22.7168L72.9619 22.9365C73.6781 22.6598 74.2396 22.4564 74.6465 22.3262C75.0534 22.196 75.3138 22.1309 75.4277 22.1309C76.6159 22.1309 77.5029 22.4971 78.0889 23.2295C78.6911 23.9456 78.9922 25.0361 78.9922 26.501C78.9922 26.7777 78.9596 27.1032 78.8945 27.4775C78.8294 27.8519 78.7236 28.2588 78.5771 28.6982C78.4144 29.1865 78.2354 29.5934 78.04 29.9189C77.861 30.2445 77.6901 30.4805 77.5273 30.627C77.5924 30.8385 77.6657 30.9932 77.7471 31.0908C77.8285 31.1722 77.9342 31.2129 78.0645 31.2129C78.1947 31.2129 78.3249 31.1722 78.4551 31.0908C78.6016 31.0094 78.7725 30.8874 78.9678 30.7246C79.1305 31.0827 79.2852 31.457 79.4316 31.8477C79.5944 32.222 79.7572 32.5964 79.9199 32.9707C79.627 33.2311 79.3421 33.4834 79.0654 33.7275C78.7887 33.9717 78.4958 34.2077 78.1865 34.4355C77.8122 34.7448 77.4541 34.9727 77.1123 35.1191C76.7868 35.2493 76.4613 35.3145 76.1357 35.3145C75.7614 35.3145 75.4521 35.2249 75.208 35.0459C74.9639 34.8669 74.7686 34.6146 74.6221 34.2891C74.2152 34.8262 73.7188 35.3226 73.1328 35.7783C72.5632 36.2178 71.9284 36.584 71.2285 36.877C70.8216 37.0723 70.4473 37.2269 70.1055 37.3408C69.7799 37.4385 69.4788 37.4873 69.2021 37.4873C69.1208 37.4873 68.958 37.5199 68.7139 37.585C68.486 37.6501 68.2988 37.6826 68.1523 37.6826C67.2246 37.6826 66.3864 37.292 65.6377 36.5107C64.889 35.7295 64.5146 34.8587 64.5146 33.8984C64.5146 33.5078 64.6042 32.9951 64.7832 32.3604C64.9622 31.7093 65.0518 31.3268 65.0518 31.2129C65.0518 31.099 65.0111 31.0094 64.9297 30.9443C64.8646 30.863 64.7669 30.8223 64.6367 30.8223C64.5553 30.8223 64.36 30.9443 64.0508 31.1885C63.7415 31.4326 63.3021 31.7826 62.7324 32.2383C62.6836 32.3034 62.6266 32.401 62.5615 32.5312C62.4964 32.6615 62.3906 32.8079 62.2441 32.9707C62.1139 32.5964 61.9674 32.222 61.8047 31.8477C61.6419 31.457 61.4629 31.0827 61.2676 30.7246ZM73.0107 26.2568C72.9294 26.2731 72.8073 26.3626 72.6445 26.5254C72.498 26.6719 72.3516 26.859 72.2051 27.0869C71.9772 27.4613 71.7168 27.8682 71.4238 28.3076C71.2448 28.5029 71.0495 28.6576 70.8379 28.7715C70.6426 28.8691 70.4147 28.9424 70.1543 28.9912C69.9915 29.0075 69.8206 29.1702 69.6416 29.4795C69.4626 29.7725 69.2835 30.2038 69.1045 30.7734C68.9255 31.278 68.7952 31.7093 68.7139 32.0674C68.6325 32.4255 68.5918 32.7266 68.5918 32.9707C68.5918 33.4264 68.7057 33.7682 68.9336 33.9961C69.1615 34.224 69.5114 34.3379 69.9834 34.3379C70.7321 34.3379 71.4157 34.1344 72.0342 33.7275C72.6689 33.3044 73.263 32.6777 73.8164 31.8477C74.0768 31.5384 74.321 31.2454 74.5488 30.9688C74.679 30.8711 74.7848 30.7165 74.8662 30.5049C74.9476 30.277 75.029 30.0003 75.1104 29.6748L75.5498 28.2832C75.4033 27.7949 75.265 27.4124 75.1348 27.1357C75.0046 26.8428 74.8743 26.6637 74.7441 26.5986C74.6628 26.5498 74.4837 26.501 74.207 26.4521C73.9303 26.387 73.5316 26.3219 73.0107 26.2568ZM78.9434 30.7246C79.041 30.6107 79.1549 30.4642 79.2852 30.2852C79.4154 30.0898 79.5618 29.8783 79.7246 29.6504C80.4408 28.7552 81.1325 27.9577 81.7998 27.2578C82.4834 26.5417 83.1263 25.9069 83.7285 25.3535C84.0378 25.0605 84.4121 24.6862 84.8516 24.2305C85.291 23.7585 85.8037 23.2214 86.3896 22.6191C86.9756 22.3913 87.6185 22.1309 88.3184 21.8379C88.7578 21.8379 89.0833 21.9844 89.2949 22.2773C89.5065 22.554 89.6123 22.9609 89.6123 23.498C89.6123 23.9538 89.5716 24.4502 89.4902 24.9873C89.4251 25.5081 89.3275 26.0452 89.1973 26.5986C89.0508 27.0381 88.9287 27.4613 88.8311 27.8682C88.8311 27.9821 88.8555 28.0716 88.9043 28.1367C88.9531 28.1855 89.0345 28.21 89.1484 28.21C89.3926 28.096 89.8646 27.6891 90.5645 26.9893C91.2643 26.2894 92.1839 25.3128 93.3232 24.0596C94.2998 22.9854 95.1543 22.1878 95.8867 21.667C96.6191 21.1299 97.2051 20.8613 97.6445 20.8613C98.1165 20.8613 98.4583 21.0404 98.6699 21.3984C98.8978 21.7402 99.0117 22.2529 99.0117 22.9365C99.0117 23.9294 98.9385 24.8896 98.792 25.8174C98.6455 26.7288 98.3932 27.6077 98.0352 28.4541C97.9701 28.6169 97.9294 28.7552 97.9131 28.8691C97.8968 28.9831 97.8887 29.0889 97.8887 29.1865C97.8887 29.3005 97.9863 29.4062 98.1816 29.5039C98.3118 29.39 98.4583 29.2272 98.6211 29.0156C98.8001 28.804 99.0036 28.5355 99.2314 28.21C99.6058 27.9007 99.9801 27.5915 100.354 27.2822C100.729 26.973 101.136 26.6556 101.575 26.3301C102.031 25.972 102.495 25.7035 102.967 25.5244C103.439 25.3291 103.903 25.2314 104.358 25.2314C104.44 25.2314 104.521 25.2559 104.603 25.3047C104.684 25.3535 104.765 25.4105 104.847 25.4756C105.221 25.8011 105.53 26.1022 105.774 26.3789C106.019 26.6393 106.189 26.8672 106.287 27.0625C106.922 28.3646 107.483 29.3411 107.972 29.9922C108.476 30.627 108.916 30.9443 109.29 30.9443C109.371 30.9443 109.453 30.9281 109.534 30.8955C109.616 30.8467 109.697 30.7897 109.778 30.7246C110.153 31.5221 110.47 32.2708 110.73 32.9707C110.145 33.4264 109.624 33.7764 109.168 34.0205C108.712 34.2484 108.313 34.3623 107.972 34.3623C106.849 34.3623 105.685 33.638 104.48 32.1895C103.292 30.7246 102.381 29.9922 101.746 29.9922C100.9 29.9922 99.4919 31.2454 97.5225 33.752C95.5531 36.2422 94.3242 37.4873 93.8359 37.4873C93.5918 37.4873 93.2663 37.4629 92.8594 37.4141C92.7292 37.3652 92.6315 37.2676 92.5664 37.1211C92.5013 36.9583 92.4688 36.7712 92.4688 36.5596C92.4688 36.3154 92.5176 35.998 92.6152 35.6074C92.7129 35.2005 92.8431 34.7285 93.0059 34.1914C93.2174 33.5078 93.3883 32.9626 93.5186 32.5557C93.6488 32.1488 93.722 31.8639 93.7383 31.7012C93.7871 31.4896 93.8522 31.0745 93.9336 30.4561C94.0312 29.8376 94.1533 29.0156 94.2998 27.9902C94.2998 27.8112 94.251 27.6729 94.1533 27.5752C94.0557 27.4775 93.9417 27.4287 93.8115 27.4287C93.6976 27.4287 93.5674 27.4694 93.4209 27.5508C93.2907 27.6159 93.1361 27.7298 92.957 27.8926C92.7617 28.1042 92.542 28.3158 92.2979 28.5273C92.07 28.7389 91.6956 29.04 91.1748 29.4307C90.6051 30.0817 90.0192 30.749 89.417 31.4326C88.8311 32.0999 88.2288 32.7754 87.6104 33.459C86.6338 34.5983 85.8525 35.4447 85.2666 35.998C84.6969 36.5352 84.3307 36.8037 84.168 36.8037C83.6797 36.8037 83.3053 36.7467 83.0449 36.6328C82.8008 36.5189 82.6787 36.348 82.6787 36.1201C82.6787 35.583 82.9635 34.4681 83.5332 32.7754C84.1191 31.0664 84.4121 29.862 84.4121 29.1621C84.4121 29.0482 84.3714 28.9587 84.29 28.8936C84.2249 28.8122 84.1354 28.7715 84.0215 28.7715C83.8262 28.7715 83.5902 28.8854 83.3135 29.1133C83.0531 29.3249 82.752 29.6667 82.4102 30.1387C82.1823 30.3991 81.9056 30.7002 81.5801 31.042C81.2546 31.3838 80.8558 31.7826 80.3838 32.2383C80.335 32.3685 80.2699 32.4987 80.1885 32.6289C80.1071 32.7428 80.0176 32.8568 79.9199 32.9707C79.8548 32.7266 79.7409 32.4255 79.5781 32.0674C79.4154 31.7093 79.2038 31.2617 78.9434 30.7246Z" fill="#E9E7DB"/>
</g>
</g>
<defs>
<filter id="filter0_d_16_264" x="0" y="3" width="230" height="138" filterUnits="userSpaceOnUse" color-interpolation-filters="sRGB">
<feFlood flood-opacity="0" result="BackgroundImageFix"/>
<feColorMatrix in="SourceAlpha" type="matrix" values="0 0 0 0 0 0 0 0 0 0 0 0 0 0 0 0 0 0 127 0" result="hardAlpha"/>
<feOffset dy="4"/>
<feGaussianBlur stdDeviation="2"/>
<feComposite in2="hardAlpha" operator="out"/>
<feColorMatrix type="matrix" values="0 0 0 0 0 0 0 0 0 0 0 0 0 0 0 0 0 0 0.25 0"/>
<feBlend mode="normal" in2="BackgroundImageFix" result="effect1_dropShadow_16_264"/>
<feBlend mode="normal" in="SourceGraphic" in2="effect1_dropShadow_16_264" result="shape"/>
</filter>
<filter id="filter1_d_16_264" x="35.0264" y="4.11328" width="79.7041" height="42.7656" filterUnits="userSpaceOnUse" color-interpolation-filters="sRGB">
<feFlood flood-opacity="0" result="BackgroundImageFix"/>
<feColorMatrix in="SourceAlpha" type="matrix" values="0 0 0 0 0 0 0 0 0 0 0 0 0 0 0 0 0 0 127 0" result="hardAlpha"/>
<feOffset dy="4"/>
<feGaussianBlur stdDeviation="2"/>
<feComposite in2="hardAlpha" operator="out"/>
<feColorMatrix type="matrix" values="0 0 0 0 0 0 0 0 0 0 0 0 0 0 0 0 0 0 0.25 0"/>
<feBlend mode="normal" in2="BackgroundImageFix" result="effect1_dropShadow_16_264"/>
<feBlend mode="normal" in="SourceGraphic" in2="effect1_dropShadow_16_264" result="shape"/>
</filter>
</defs>
</svg>
